<svg xmlns="http://www.w3.org/2000/svg" width="166.282" height="166.283" viewBox="0 0 166.282 166.283">
  <g id="Path_4" data-name="Path 4" fill="none">
    <path d="M83.141,0A83.141,83.141,0,1,1,0,83.141,83.141,83.141,0,0,1,83.141,0Z" stroke="none"/>
    <path d="M 83.14125061035156 2 C 77.63461303710938 2 72.13202667236328 2.554641723632812 66.78633880615234 3.648529052734375 C 61.57752227783203 4.71441650390625 56.4539794921875 6.304840087890625 51.55802154541016 8.375656127929688 C 46.75050354003906 10.40907287597656 42.11347961425781 12.92597961425781 37.77580261230469 15.85646057128906 C 33.47879028320312 18.75946044921875 29.43801879882812 22.09341430664062 25.76573181152344 25.76573181152344 C 22.09341430664062 29.43801879882812 18.75946044921875 33.47879028320312 15.85646057128906 37.77580261230469 C 12.92597961425781 42.11347961425781 10.40907287597656 46.75050354003906 8.375656127929688 51.55802154541016 C 6.304840087890625 56.4539794921875 4.71441650390625 61.57752227783203 3.648529052734375 66.78633880615234 C 2.554641723632812 72.13202667236328 2 77.63461303710938 2 83.14125061035156 C 2 88.64788818359375 2.554641723632812 94.15047454833984 3.648529052734375 99.49616241455078 C 4.71441650390625 104.7049789428711 6.304840087890625 109.828498840332 8.375656127929688 114.724479675293 C 10.40907287597656 119.5319976806641 12.92597961425781 124.1689987182617 15.85646057128906 128.5067138671875 C 18.75946044921875 132.8037109375 22.09341430664062 136.844482421875 25.76573181152344 140.5167694091797 C 29.43801879882812 144.1890869140625 33.47879028320312 147.5230407714844 37.77580261230469 150.426025390625 C 42.11347961425781 153.3565216064453 46.75050354003906 155.8734283447266 51.55802154541016 157.9068450927734 C 56.4539794921875 159.9776611328125 61.57752227783203 161.5680847167969 66.78633880615234 162.6339721679688 C 72.13202667236328 163.7278594970703 77.63461303710938 164.2825012207031 83.14125061035156 164.2825012207031 C 88.64788818359375 164.2825012207031 94.15047454833984 163.7278594970703 99.49616241455078 162.6339721679688 C 104.7049789428711 161.5680847167969 109.828498840332 159.9776611328125 114.724479675293 157.9068450927734 C 119.5319976806641 155.8734283447266 124.1689987182617 153.3565216064453 128.5067138671875 150.426025390625 C 132.8037109375 147.5230407714844 136.844482421875 144.1890869140625 140.5167694091797 140.5167694091797 C 144.1890869140625 136.844482421875 147.5230407714844 132.8037109375 150.426025390625 128.5067138671875 C 153.3565216064453 124.1689987182617 155.8734283447266 119.5319976806641 157.9068450927734 114.724479675293 C 159.9776611328125 109.828498840332 161.5680847167969 104.7049789428711 162.6339721679688 99.49616241455078 C 163.7278594970703 94.15047454833984 164.2825012207031 88.64788818359375 164.2825012207031 83.14125061035156 C 164.2825012207031 77.63461303710938 163.7278594970703 72.13202667236328 162.6339721679688 66.78633880615234 C 161.5680847167969 61.57752227783203 159.9776611328125 56.4539794921875 157.9068450927734 51.55802154541016 C 155.8734283447266 46.75050354003906 153.3565216064453 42.11347961425781 150.426025390625 37.77580261230469 C 147.5230407714844 33.47879028320312 144.1890869140625 29.43801879882812 140.5167694091797 25.76573181152344 C 136.844482421875 22.09341430664062 132.8037109375 18.75946044921875 128.5067138671875 15.85646057128906 C 124.1689987182617 12.92597961425781 119.5319976806641 10.40907287597656 114.724479675293 8.375656127929688 C 109.828498840332 6.304840087890625 104.7049789428711 4.71441650390625 99.49616241455078 3.648529052734375 C 94.15047454833984 2.554641723632812 88.64788818359375 2 83.14125061035156 2 M 83.14125061035156 0 C 129.0588836669922 0 166.2825012207031 37.22358703613281 166.2825012207031 83.14125061035156 C 166.2825012207031 129.0588836669922 129.0588836669922 166.2825012207031 83.14125061035156 166.2825012207031 C 37.22358703613281 166.2825012207031 0 129.0588836669922 0 83.14125061035156 C 0 37.22358703613281 37.22358703613281 0 83.14125061035156 0 Z" stroke="none" fill="#fff"/>
  </g>
</svg>
