<svg xmlns="http://www.w3.org/2000/svg" width="1460.398" height="221.141" viewBox="0 0 1460.398 221.141">
  <path id="Path_5" data-name="Path 5" d="M62.988-75.146V0H19.043V-213.281h83.2q24.023,0,42.261,8.789t28.052,24.976q9.814,16.187,9.814,36.841,0,31.348-21.46,49.438t-59.4,18.091Zm0-35.6h39.258q17.432,0,26.587-8.2t9.155-23.437q0-15.674-9.229-25.342t-25.488-9.961H62.988ZM291.5-78.076h-35.01V0H212.549V-213.281H291.8q37.793,0,58.3,16.846t20.508,47.607q0,21.826-9.448,36.4T332.52-89.209L378.662-2.051V0H331.494Zm-35.01-35.6h35.449q16.553,0,25.635-8.423t9.082-23.218q0-15.088-8.569-23.73T291.8-177.686h-35.3ZM579.2-101.807q0,31.494-11.133,55.225T536.206-9.961Q515.479,2.93,488.672,2.93q-26.514,0-47.314-12.744t-32.227-36.4q-11.426-23.657-11.572-54.419v-10.547q0-31.494,11.353-55.444t32.08-36.768q20.728-12.817,47.388-12.817t47.388,12.817q20.728,12.817,32.08,36.768t11.353,55.3Zm-44.531-9.668q0-33.545-12.012-50.977t-34.277-17.432q-22.119,0-34.131,17.212T442.09-112.207v10.4q0,32.666,12.012,50.684t34.57,18.018q22.119,0,33.984-17.358t12.012-50.61ZM697.119-213.281h43.945V-65.625q0,20.361-9.009,35.962a61.138,61.138,0,0,1-25.415,24.1q-16.406,8.5-37.061,8.5-33.838,0-52.734-17.212t-18.9-48.706h44.238q0,15.674,6.592,23.145t20.8,7.471q12.6,0,20.068-8.643t7.471-24.609ZM907.031-92.432H822.656V-35.3H921.68V0H778.711V-213.281H921.387v35.6h-98.73v50.83h84.375Zm207.861,21.387q-2.49,34.424-25.415,54.2T1029.053,2.93q-41.016,0-64.526-27.612t-23.511-75.806v-13.037q0-30.762,10.84-54.2t30.981-35.962q20.142-12.524,46.8-12.524,36.914,0,59.473,19.775t26.074,55.518H1071.24q-1.611-20.654-11.5-29.956t-30.1-9.3q-21.973,0-32.886,15.747t-11.206,48.853v16.113q0,34.57,10.474,50.537t33.032,15.967q20.361,0,30.4-9.3t11.5-28.784Zm185.156-106.641h-65.332V0h-43.945V-177.686h-64.453v-35.6h173.73Zm133.3,121.729q0-12.451-8.789-19.116T1392.92-89.136q-22.852-7.4-36.182-14.575-36.328-19.629-36.328-52.881a51.5,51.5,0,0,1,9.741-30.835q9.741-13.55,27.979-21.167t40.942-7.617q22.852,0,40.723,8.276t27.759,23.364a61.137,61.137,0,0,1,9.888,34.277H1433.5q0-14.648-9.229-22.778t-25.928-8.13q-16.113,0-25.049,6.812a21.485,21.485,0,0,0-8.936,17.944q0,10.4,10.474,17.432t30.835,13.184q37.5,11.279,54.639,27.979t17.139,41.6q0,27.686-20.947,43.433T1400.1,2.93q-24.609,0-44.824-9.009t-30.835-24.683q-10.62-15.674-10.62-36.328h44.092q0,35.3,42.188,35.3,15.674,0,24.463-6.372T1433.35-55.957Z" transform="translate(-18.043 217.211)" fill="none" stroke="#fff" stroke-width="2"/>
</svg>
